# xmcd CD database file
#
# Track frame offsets:
#	150
#	27039
#	51568
#	75107
#	96466
#	122715
#	143733
#	167001
#	189362
#	211603
#	245232
#
# Disc length: 3532 seconds
#
# Revision: 1
# Processed by: cddbd v1.5.1PL2 Copyright (c) Steve Scherf et al.
# Submitted via: CDex 1.51
#
DISCID=8e0dca0b
DTITLE=Zureikat - Fleer - The way out
DYEAR=2006
DGENRE=Jazz
TTITLE0=Holy mama
TTITLE1=You make me shiver
TTITLE2=Where are you now
TTITLE3=Entveig II
TTITLE4=Giant of the sea
TTITLE5=To be
TTITLE6=How do you know
TTITLE7=We belong together
TTITLE8=Mother to son
TTITLE9=Hold on
TTITLE10=River II
EXTD=YEAR: 2006
EXTT0=
EXTT1=
EXTT2=
EXTT3=
EXTT4=
EXTT5=
EXTT6=
EXTT7=
EXTT8=
EXTT9=
EXTT10=
PLAYORDER=
